<?xml version="1.0" standalone="no"?>
<!DOCTYPE svg PUBLIC "-//W3C//DTD SVG 1.1//EN" "http://www.w3.org/Graphics/SVG/1.1/DTD/svg11.dtd" >
<svg xmlns="http://www.w3.org/2000/svg" xmlns:xlink="http://www.w3.org/1999/xlink" version="1.1">
<metadata></metadata>
<defs>
<font id="onesizeregular" horiz-adv-x="1366" >
<font-face units-per-em="2048" ascent="1536" descent="-512" />
<missing-glyph horiz-adv-x="681" />
<glyph horiz-adv-x="0" />
<glyph unicode="&#xd;" horiz-adv-x="681" />
<glyph unicode=" "  horiz-adv-x="681" />
<glyph unicode="&#x09;" horiz-adv-x="681" />
<glyph unicode="&#xa0;" horiz-adv-x="681" />
<glyph unicode="!" horiz-adv-x="681" d="M170 0h342v170h-342v-170zM170 342h342v852h-342v-852z" />
<glyph unicode="&#x22;" horiz-adv-x="854" d="M170 1024h172v342h-172v-342zM512 1024h170v342h-170v-342z" />
<glyph unicode="#" horiz-adv-x="1536" d="M170 682h172v-170h340v170h172v-170h340v170h172v172h-172v170h172v170h-172v172h-340v-172h-172v172h-340v-172h-172v-170h172v-170h-172v-172zM682 854v170h172v-170h-172z" />
<glyph unicode="$" horiz-adv-x="1536" d="M170 170h172v-170h340v-170h172v170h340v170h172v342h-172v170h-340v342h170v-170h342v170h-172v170h-340v172h-172v-172h-340v-170h-172v-342h172v-170h340v-342h-170v172h-342v-172zM512 682v342h170v-342h-170zM854 170v342h170v-342h-170z" />
<glyph unicode="%" horiz-adv-x="1878" d="M170 854h172v-172h512v172h170v170h-170v170h-512v-170h-172v-170zM342 0h170v170h-170v-170zM512 170h170v172h-170v-172zM512 854v170h170v-170h-170zM682 342h172v170h-172v-170zM854 170h170v-170h512v170h170v172h-170v170h-512v-170h-170v-172zM854 512h170v170 h-170v-170zM1024 682h170v172h-170v-172zM1194 170v172h172v-172h-172zM1194 854h172v170h-172v-170zM1366 1024h170v170h-170v-170z" />
<glyph unicode="&#x26;" horiz-adv-x="1536" d="M170 170h172v-170h512v170h-342v342h-342v-342zM170 854h172v-172h170v342h342v-170h-172v-172h-170v-170h170v-170h172v-172h170v-170h342v170h-172v172h-170v170h-170v170h170v172h170v170h-170v170h-682v-170h-172v-170zM1194 342h172v170h-172v-170z" />
<glyph unicode="'" horiz-adv-x="512" d="M170 1024h172v342h-172v-342z" />
<glyph unicode="(" horiz-adv-x="854" d="M170 342h172v-172h170v854h-170v-170h-172v-512zM512 0h170v170h-170v-170zM512 1024h170v170h-170v-170z" />
<glyph unicode=")" horiz-adv-x="854" d="M170 0h172v170h-172v-170zM170 1024h172v170h-172v-170zM342 170h170v172h170v512h-170v170h-170v-854z" />
<glyph unicode="*" d="M172 512h170v170h-170v-170zM172 852h170v170h-170v-170zM342 682h170v-342h342v342h170v170h-170v342h-342v-342h-170v-170zM1024 512h170v170h-170v-170zM1024 852h170v170h-170v-170z" />
<glyph unicode="+" d="M170 512h342v-342h342v342h340v170h-340v342h-342v-342h-342v-170z" />
<glyph unicode="," horiz-adv-x="854" d="M170 0v-170h342v170h170v342h-340v-342h-172z" />
<glyph unicode="-" horiz-adv-x="1193" d="M170 512h854v170h-854v-170z" />
<glyph unicode="." horiz-adv-x="681" d="M170 0h342v342h-342v-342z" />
<glyph unicode="/" horiz-adv-x="1193" d="M170 0h172v170h170v342h170v340h170v342h172v170h-342v-342h-170v-340h-170v-342h-172v-340z" />
<glyph unicode="0" d="M170 170h172v-170h682v170h170v854h-170v170h-682v-170h-172v-854zM512 170v854h342v-854h-342z" />
<glyph unicode="1" horiz-adv-x="854" d="M170 854h172v-854h340v1194h-340v-170h-172v-170z" />
<glyph unicode="2" d="M170 0h1024v170h-512v172h172v170h170v170h170v342h-170v170h-682v-170h-172v-170h342v170h342v-342h-172v-170h-170v-170h-170v-172h-172v-170z" />
<glyph unicode="3" d="M170 170h172v-170h682v170h170v342h-170v170h170v342h-170v170h-682v-170h-172v-170h342v170h342v-342h-342v-170h342v-342h-342v172h-342v-172z" />
<glyph unicode="4" d="M170 342h512v-342h342v342h170v170h-170v682h-342v-170h-170v-170h170v-342h-340v170h-172v-340zM342 682h170v172h-170v-172z" />
<glyph unicode="5" d="M170 170h172v-170h682v170h170v512h-170v172h-512v170h682v170h-1024v-512h684v-512h-342v172h-342v-172z" />
<glyph unicode="6" d="M170 170h172v-170h682v170h170v512h-170v172h-512v170h512v170h-682v-170h-172v-854zM512 170v512h342v-512h-342z" />
<glyph unicode="7" d="M170 1024h684v-342h-172v-170h-170v-512h342v512h170v170h170v512h-1024v-170z" />
<glyph unicode="8" d="M170 170h172v-170h682v170h170v342h-170v170h170v342h-170v170h-682v-170h-172v-342h172v-170h-172v-342zM512 170v342h342v-342h-342zM512 682v342h342v-342h-342z" />
<glyph unicode="9" d="M170 512h172v-170h512v-172h-512v-170h682v170h170v854h-170v170h-682v-170h-172v-512zM512 512v512h342v-512h-342z" />
<glyph unicode=":" horiz-adv-x="681" d="M170 0h342v342h-342v-342zM170 682h342v342h-342v-342z" />
<glyph unicode=";" horiz-adv-x="854" d="M170 0v-170h342v170h170v342h-340v-342h-172zM342 682h340v342h-340v-342z" />
<glyph unicode="&#x3c;" horiz-adv-x="1024" d="M170 512h172v-170h170v-172h170v-170h172v342h-172v170h-170v170h170v172h172v340h-172v-170h-170v-170h-170v-172h-172v-170z" />
<glyph unicode="=" horiz-adv-x="1193" d="M170 342h854v170h-854v-170zM170 682h854v172h-854v-172z" />
<glyph unicode="&#x3e;" horiz-adv-x="1024" d="M170 0h172v170h170v172h170v170h172v170h-172v172h-170v170h-170v170h-172v-340h172v-172h170v-170h-170v-170h-172v-342z" />
<glyph unicode="?" horiz-adv-x="1363" d="M170 852h342v170h340v-340h-170v-170h-170v-172h340v172h172v170h170v340h-170v172h-682v-172h-172v-170zM512 0h340v170h-340v-170z" />
<glyph unicode="@" d="M170 170h172v-170h682v170h-512v172h512v170h-170v342h-342v170h342v-170h170v-342h170v512h-170v170h-682v-170h-172v-854zM512 512v170h170v-170h-170z" />
<glyph unicode="A" d="M170 0h342v512h342v-512h340v1024h-170v170h-682v-170h-172v-1024zM512 682v342h342v-342h-342z" />
<glyph unicode="B" d="M170 0h854v170h170v342h-170v170h170v342h-170v170h-854v-1194zM512 170v342h342v-342h-342zM512 682v342h342v-342h-342z" />
<glyph unicode="C" d="M170 170h172v-170h682v170h170v172h-340v-172h-342v854h342v-170h340v170h-170v170h-682v-170h-172v-854z" />
<glyph unicode="D" d="M170 0h854v170h170v854h-170v170h-854v-1194zM512 170v854h342v-854h-342z" />
<glyph unicode="E" d="M170 0h1024v170h-682v342h512v170h-512v342h682v170h-1024v-1194z" />
<glyph unicode="F" d="M170 0h342v512h512v170h-512v342h682v170h-1024v-1194z" />
<glyph unicode="G" d="M170 170h172v-170h682v170h170v512h-512v-170h172v-342h-342v854h342v-170h340v170h-170v170h-682v-170h-172v-854z" />
<glyph unicode="H" d="M170 0h342v512h342v-512h340v1194h-340v-512h-342v512h-342v-1194z" />
<glyph unicode="I" horiz-adv-x="681" d="M170 0h342v1194h-342v-1194z" />
<glyph unicode="J" d="M170 170h172v-170h682v170h170v1024h-340v-1024h-342v342h-342v-342z" />
<glyph unicode="K" d="M170 0h342v342h170v-172h172v-170h340v170h-170v172h-170v170h-172v170h172v172h170v170h170v170h-340v-170h-172v-170h-170v340h-342v-1194z" />
<glyph unicode="L" d="M170 0h1024v170h-682v1024h-342v-1194z" />
<glyph unicode="M" horiz-adv-x="1536" d="M170 0h342v682h170v-170h172v170h170v-682h342v1194h-342v-170h-170v-170h-172v170h-170v170h-342v-1194z" />
<glyph unicode="N" d="M170 0h342v682h170v-170h172v-512h340v1194h-340v-340h-172v170h-170v170h-342v-1194z" />
<glyph unicode="O" d="M170 170h172v-170h682v170h170v854h-170v170h-682v-170h-172v-854zM512 170v854h342v-854h-342z" />
<glyph unicode="P" d="M170 0h342v512h512v170h170v342h-170v170h-854v-1194zM512 682v342h342v-342h-342z" />
<glyph unicode="Q" d="M170 170h172v-170h512v-170h340v170h-170v170h170v854h-170v170h-682v-170h-172v-854zM512 170v854h342v-682h-172v-172h-170z" />
<glyph unicode="R" d="M170 0h342v512h342v-512h340v512h-170v170h170v342h-170v170h-854v-1194zM512 682v342h342v-342h-342z" />
<glyph unicode="S" d="M170 170h172v-170h682v170h170v342h-170v170h-512v342h342v-170h340v170h-170v170h-682v-170h-172v-342h172v-170h512v-342h-342v172h-342v-172z" />
<glyph unicode="T" d="M170 1024h342v-1024h342v1024h340v170h-1024v-170z" />
<glyph unicode="U" d="M170 170h172v-170h682v170h170v1024h-340v-1024h-342v1024h-342v-1024z" />
<glyph unicode="V" d="M170 342h172v-172h170v-170h342v170h170v172h170v852h-340v-852h-342v852h-342v-852z" />
<glyph unicode="W" horiz-adv-x="1536" d="M170 0h342v170h170v172h172v-172h170v-170h342v1194h-342v-682h-170v170h-172v-170h-170v682h-342v-1194z" />
<glyph unicode="X" d="M170 0h342v342h342v-342h340v342h-170v170h-170v170h170v172h170v340h-340v-340h-342v340h-342v-340h172v-172h170v-170h-170v-170h-172v-342z" />
<glyph unicode="Y" d="M170 682h172v-170h170v-512h342v512h170v170h170v512h-340v-512h-342v512h-342v-512z" />
<glyph unicode="Z" d="M170 0h1024v170h-682v172h170v170h172v170h170v172h170v340h-1024v-170h684v-170h-172v-172h-170v-170h-170v-170h-172v-342z" />
<glyph unicode="[" horiz-adv-x="854" d="M170 -170h512v170h-170v1194h170v172h-512v-1536z" />
<glyph unicode="\" horiz-adv-x="1193" d="M170 1194v170h342v-342h170v-340h170v-342h172v-340h-172v170h-170v342h-170v340h-170v342h-172z" />
<glyph unicode="]" horiz-adv-x="854" d="M170 0h172v1194h-172v172h512v-1536h-512v170z" />
<glyph unicode="^" horiz-adv-x="1024" d="M170 1024h172v170h-172v-170zM342 1194h340v172h-340v-172zM682 1024h172v170h-172v-170z" />
<glyph unicode="_" horiz-adv-x="1193" d="M170 0v170h854v-170h-854z" />
<glyph unicode="`" horiz-adv-x="854" d="M170 1194h172v172h-172v-172zM342 1024h340v170h-340v-170z" />
<glyph unicode="a" d="M170 170h172v-170h340v170h-170v512h342v-340h-172v-172h172v-170h340v854h-852v-172h-172v-512z" />
<glyph unicode="b" d="M170 0h854v170h170v512h-170v172h-512v340h-342v-1194zM512 170v512h342v-512h-342z" />
<glyph unicode="c" d="M170 170h172v-170h852v170h-682v512h342v-170h340v170h-170v172h-682v-172h-172v-512z" />
<glyph unicode="d" d="M170 170h172v-170h852v1194h-340v-340h-512v-172h-172v-512zM512 170v512h342v-512h-342z" />
<glyph unicode="e" d="M170 170h172v-170h852v170h-682v172h682v340h-170v172h-682v-172h-172v-512zM512 512v170h342v-170h-342z" />
<glyph unicode="f" horiz-adv-x="1193" d="M170 682h172v-682h340v682h342v172h-342v170h342v170h-512v-170h-170v-170h-172v-172z" />
<glyph unicode="g" d="M170 170h172v-170h512v-170h-512v-172h682v172h170v1024h-852v-172h-172v-512zM512 170v512h342v-512h-342z" />
<glyph unicode="h" d="M170 0h342v682h342v-682h340v682h-170v172h-512v340h-342v-1194z" />
<glyph unicode="i" horiz-adv-x="681" d="M170 0h342v854h-342v-854zM170 1024h342v170h-342v-170z" />
<glyph unicode="j" horiz-adv-x="1204" d="M176 0v-170h682v170h172v854h-342v-854h-512zM688 1024h342v170h-342v-170z" />
<glyph unicode="k" d="M170 0h342v342h170v-172h170v-170h342v170h-170v172h-172v170h172v170h170v172h-342v-172h-170v-170h-170v682h-342v-1194z" />
<glyph unicode="l" horiz-adv-x="854" d="M170 1024h170v-1024h342v1194h-512v-170z" />
<glyph unicode="m" horiz-adv-x="1705" d="M170 0h342v682h170v-682h342v682h170v-682h342v682h-170v172h-1196v-854z" />
<glyph unicode="n" d="M170 0h342v512h170v170h-170v172h-342v-854zM682 682h172v-682h340v682h-170v172h-342v-172z" />
<glyph unicode="o" d="M170 170h172v-170h682v170h170v512h-170v172h-682v-172h-172v-512zM512 170v512h342v-512h-342z" />
<glyph unicode="p" d="M170 -342h342v342h512v170h170v512h-170v172h-854v-1196zM512 170v512h342v-512h-342z" />
<glyph unicode="q" d="M170 170h172v-170h512v-342h340v1196h-852v-172h-172v-512zM512 170v512h342v-512h-342z" />
<glyph unicode="r" d="M170 0h342v512h170v170h-170v172h-342v-854zM682 682h172v-170h340v170h-170v172h-342v-172z" />
<glyph unicode="s" d="M170 0h854v170h170v172h-170v170h-512v170h682v172h-852v-172h-172v-170h172v-170h512v-172h-684v-170z" />
<glyph unicode="t" horiz-adv-x="1193" d="M170 682h172v-512h170v-170h512v170h-342v512h342v172h-342v340h-340v-340h-172v-172z" />
<glyph unicode="u" d="M170 170h172v-170h340v170h-170v684h-342v-684zM682 170h172v-170h340v854h-340v-512h-172v-172z" />
<glyph unicode="v" d="M170 342h172v-172h170v-170h342v170h170v172h170v512h-340v-512h-342v512h-342v-512z" />
<glyph unicode="w" horiz-adv-x="1705" d="M170 170h172v-170h1024v170h170v684h-342v-684h-170v684h-342v-684h-170v684h-342v-684z" />
<glyph unicode="x" d="M170 0h342v170h342v-170h340v170h-170v172h-170v170h170v170h170v172h-340v-172h-342v172h-342v-172h172v-170h170v-170h-170v-172h-172v-170z" />
<glyph unicode="y" d="M170 170h172v-170h512v-170h-512v-172h682v172h170v1024h-340v-684h-342v684h-342v-684z" />
<glyph unicode="z" d="M170 0h1024v170h-512v172h172v170h170v170h170v172h-1024v-172h512v-170h-170v-170h-170v-172h-172v-170z" />
<glyph unicode="{" horiz-adv-x="1024" d="M170 512h172v-512h170v-170h342v170h-172v512h-170v170h170v512h172v172h-342v-172h-170v-512h-172v-170z" />
<glyph unicode="|" horiz-adv-x="681" d="M170 -170h342v1536h-342v-1536z" />
<glyph unicode="}" horiz-adv-x="1024" d="M170 0v-170h342v170h170v512h172v170h-172v512h-170v172h-342v-172h172v-512h170v-170h-170v-512h-172z" />
<glyph unicode="~" horiz-adv-x="1536" d="M170 1024h342v170h170v-170h512v170h172v172h-342v-172h-170v172h-512v-172h-172v-170z" />
<glyph unicode="&#xad;" horiz-adv-x="1193" d="M170 512h854v170h-854v-170z" />
<glyph unicode="&#x2000;" horiz-adv-x="683" />
<glyph unicode="&#x2001;" />
<glyph unicode="&#x2002;" horiz-adv-x="683" />
<glyph unicode="&#x2003;" />
<glyph unicode="&#x2004;" horiz-adv-x="455" />
<glyph unicode="&#x2005;" horiz-adv-x="341" />
<glyph unicode="&#x2006;" horiz-adv-x="227" />
<glyph unicode="&#x2007;" horiz-adv-x="227" />
<glyph unicode="&#x2008;" horiz-adv-x="170" />
<glyph unicode="&#x2009;" horiz-adv-x="273" />
<glyph unicode="&#x200a;" horiz-adv-x="75" />
<glyph unicode="&#x2010;" horiz-adv-x="1193" d="M170 512h854v170h-854v-170z" />
<glyph unicode="&#x2011;" horiz-adv-x="1193" d="M170 512h854v170h-854v-170z" />
<glyph unicode="&#x2012;" horiz-adv-x="1193" d="M170 512h854v170h-854v-170z" />
<glyph unicode="&#x2013;" horiz-adv-x="1363" d="M170 512h1024v170h-1024v-170z" />
<glyph unicode="&#x2014;" horiz-adv-x="2387" d="M170 512h2048v170h-2048v-170z" />
<glyph unicode="&#x202f;" horiz-adv-x="273" />
<glyph unicode="&#x205f;" horiz-adv-x="341" />
<glyph unicode="&#x25fc;" horiz-adv-x="849" d="M0 0v850h850v-850h-850z" />
</font>
</defs>
</svg>
